<svg xmlns="http://www.w3.org/2000/svg" width="131.049" height="136.384" viewBox="0 0 131.049 136.384">
  <g id="ACU-logo-med-tekst-desktop" transform="translate(0.13 0.104)">
    <path id="Path_675" data-name="Path 675" d="M13.48,101.48H10.67l-.43-1.14h9.48l.55,1.45-7.07,6.32L12.76,107l2.12-1.84Zm2.86,2.39c1-.86,1.92-1.66,2.92-2.49h0l-3.83.09h-.86l1.13,3Z" transform="translate(-9.63 -11.6)" fill="#fff"/>
    <path id="Path_676" data-name="Path 676" d="M20.32,114.28c-2,1.11-3.63.68-4.66-1.17s-.54-3.46,1.46-4.57l4.84-2.7.56,1-4.82,2.68c-1.45.81-1.78,1.91-1.13,3.08s1.76,1.46,3.21.65l4.81-2.68.57,1Z" transform="translate(-9.63 -11.6)" fill="#fff"/>
    <path id="Path_677" data-name="Path 677" d="M27.43,116.5l-6.28,4.69-.7-.93,6.29-4.69-1.82-2.43.82-.61,4.32,5.78-.82.61Z" transform="translate(-9.63 -11.6)" fill="#fff"/>
    <path id="Path_678" data-name="Path 678" d="M32.9,127.57c-2,2-4.37,2.13-6.1.38s-1.57-4.11.44-6.1,4.37-2.14,6.1-.39S34.91,125.58,32.9,127.57Zm-4.82-4.87c-1.55,1.54-1.77,3.28-.54,4.52s3,1,4.52-.5,1.76-3.29.54-4.52-2.97-1.03-4.52.5Z" transform="translate(-9.63 -11.6)" fill="#fff"/>
    <path id="Path_679" data-name="Path 679" d="M40.9,131.88l-.95-.71a2.2,2.2,0,0,0-.6-3.11c-1.34-1-3-.53-4.28,1.25s-1.32,3.46,0,4.44a2.33,2.33,0,0,0,3.24-.3l1,.71a3.36,3.36,0,0,1-4.82.43c-1.9-1.42-2-3.7-.33-6s3.94-2.81,5.87-1.37a3.26,3.26,0,0,1,.87,4.66Z" transform="translate(-9.63 -11.6)" fill="#fff"/>
    <path id="Path_680" data-name="Path 680" d="M42.11,136.33,40,138.18l-1.07-.58,7.2-6.18,1.37.74-1.28,9.4-1.1-.56.43-2.78Zm3.73-.05c.19-1.29.38-2.49.6-3.78h0c-1,.88-1.88,1.69-2.86,2.56l-.65.56,2.79,1.52Z" transform="translate(-9.63 -11.6)" fill="#fff"/>
    <path id="Path_681" data-name="Path 681" d="M56.21,145.28,57.68,141c.36-1.06.74-2.13,1.12-3.19h0c-.74.94-1.49,1.87-2.25,2.8l-3,3.73-1.24-.43-.09-4.8v-3.59h0c-.36,1.08-.71,2.15-1.08,3.21L49.57,143l-1.06-.37,2.89-8.37,1.74.6.1,4.65v3.59h0c.72-.93,1.47-1.9,2.21-2.83l2.93-3.61,1.75.6-2.88,8.38Z" transform="translate(-9.63 -11.6)" fill="#fff"/>
    <path id="Path_682" data-name="Path 682" d="M65.34,138.18c2,.35,2.87,1.57,2.6,3.17s-1.5,2.45-3.52,2.11l-1.86-.33-.6,3.46-1.13-.19,1.51-8.74Zm-2.61,4,1.78.31c1.32.23,2.08-.28,2.26-1.31s-.36-1.77-1.69-2l-1.78-.31Z" transform="translate(-9.63 -11.6)" fill="#fff"/>
    <path id="Path_683" data-name="Path 683" d="M70.9,139.89l-.12,2.79,4.3.19v1l-4.31-.19-.13,3,4.7.2v1l-5.85-.25.39-8.85,5.71.25-.05,1Z" transform="translate(-9.63 -11.6)" fill="#fff"/>
    <path id="Path_684" data-name="Path 684" d="M80.18,138.76c2.13-.18,3.18.62,3.31,2.13a2.17,2.17,0,0,1-1.5,2.35h0c.67.14,1,.48,1.47,1.54l1.13,2.47-1.24.1-1-2.26c-.45-1-.89-1.32-1.83-1.24L79,144l.32,3.72-1.14.1L77.37,139Zm-1.31,4.29,1.65-.14c1.38-.12,1.89-.88,1.81-1.84s-.86-1.43-2.15-1.32l-1.58.14Z" transform="translate(-9.63 -11.6)" fill="#fff"/>
    <path id="Path_685" data-name="Path 685" d="M92.73,142.13c.52,2.23-.35,3.67-2.41,4.15s-3.48-.43-4-2.67l-1.26-5.4,1.12-.25,1.25,5.37c.37,1.61,1.33,2.23,2.64,1.93S92,144,91.6,142.37L90.35,137l1.13-.26Z" transform="translate(-9.63 -11.6)" fill="#fff"/>
    <path id="Path_686" data-name="Path 686" d="M96,135.11c2.73-1.08,4.86-.21,5.9,2.43s.09,4.73-2.64,5.81l-2.51,1-3.26-8.23ZM97.47,143l1.44-.56A3.41,3.41,0,1,0,96.4,136.1l-1.44.561Z" transform="translate(-9.63 -11.6)" fill="#fff"/>
    <path id="Path_687" data-name="Path 687" d="M110.46,136.71l.5.88L106,140.37l-4.33-7.73,1-.56,3.83,6.84Z" transform="translate(-9.63 -11.6)" fill="#fff"/>
    <path id="Path_688" data-name="Path 688" d="M109.16,129.32l1.65,2.26,3.48-2.54.59.82-3.48,2.54,1.78,2.43,3.8-2.78.6.83-4.72,3.45-5.23-7.16,4.62-3.37.6.82Z" transform="translate(-9.63 -11.6)" fill="#fff"/>
    <path id="Path_689" data-name="Path 689" d="M119.43,127.83c1.18,1.31,1.11,2.5-.12,3.61a2.41,2.41,0,0,1-.51.36l-.68-.76a2.659,2.659,0,0,0,.43-.31c.71-.63.78-1.3-.07-2.24l-4.13-4.6.85-.77Z" transform="translate(-9.63 -11.6)" fill="#fff"/>
    <path id="Path_690" data-name="Path 690" d="M127,123.52l-4.26-1c-1.47-.33-3-.66-4.39-1h0l3.21,2.78,2.66,2.35-.74.84-6.65-5.86,1.11-1.26,4.27.94c1.47.33,2.94.67,4.39,1h0c-1.08-.92-2.14-1.84-3.21-2.78l-2.66-2.35.74-.84,6.65,5.87Z" transform="translate(-9.63 -11.6)" fill="#fff"/>
    <path id="Path_691" data-name="Path 691" d="M130,119.62l-7.25-5.1.66-.94,7.25,5.1Z" transform="translate(-9.63 -11.6)" fill="#fff"/>
    <path id="Path_692" data-name="Path 692" d="M135.12,111.35h-8.87l3.73,2,3.1,1.72-.54,1-7.75-4.29.81-1.47h8.91l-3.73-2-3.1-1.72.54-1,7.75,4.29Z" transform="translate(-9.63 -11.6)" fill="#fff"/>
    <path id="Path_693" data-name="Path 693" d="M134,98l-.42,1.14a2.11,2.11,0,0,0-2.47,1.55c-.6,1.64.31,3.11,2.4,3.88s3.72.26,4.3-1.33c.5-1.36.09-2.63-1.86-3.36l-.84,2.29-.92-.34,1.22-3.32,4.42,1.62-.36,1-1.14-.42h0a3.13,3.13,0,0,1,.34,3.1c-.78,2.13-2.9,2.88-5.56,1.9s-3.83-3-3-5.36C130.79,98.43,132.28,97.56,134,98Z" transform="translate(-9.63 -11.6)" fill="#fff"/>
    <path id="Path_694" data-name="Path 694" d="M138.25,92a65,65,0,1,0-126.5,0" transform="translate(-9.63 -11.6)" fill="none" stroke="#fff" stroke-miterlimit="10" stroke-width="1"/>
    <path id="Path_695" data-name="Path 695" d="M42.2,57.42V34.84H88.54V57.42" fill="none" stroke="#fff" stroke-miterlimit="10" stroke-width="1"/>
    <line id="Line_283" data-name="Line 283" x2="46.34" transform="translate(42.2 57.42)" fill="none" stroke="#fff" stroke-miterlimit="10" stroke-width="1"/>
    <line id="Line_284" data-name="Line 284" x2="49.56" transform="translate(40.83 64.99)" fill="none" stroke="#fff" stroke-miterlimit="10" stroke-width="1"/>
    <path id="Path_696" data-name="Path 696" d="M40.81,81.17V64.87l1.39-7.45" fill="none" stroke="#fff" stroke-miterlimit="10" stroke-width="1"/>
    <path id="Path_697" data-name="Path 697" d="M90.41,81.17V65.11l-1.87-7.69" fill="none" stroke="#fff" stroke-miterlimit="10" stroke-width="1"/>
    <rect id="Rectangle_167" data-name="Rectangle 167" width="53.32" height="4.66" transform="translate(38.71 81.17)" fill="none" stroke="#fff" stroke-miterlimit="10" stroke-width="1"/>
    <line id="Line_285" data-name="Line 285" x2="46.34" transform="translate(42.2 40.31)" fill="none" stroke="#fff" stroke-miterlimit="10" stroke-width="1"/>
    <line id="Line_286" data-name="Line 286" y2="4.66" transform="translate(60.17 81.17)" fill="none" stroke="#fff" stroke-miterlimit="10" stroke-width="1"/>
    <line id="Line_287" data-name="Line 287" y2="4.66" transform="translate(70.64 81.17)" fill="none" stroke="#fff" stroke-miterlimit="10" stroke-width="1"/>
    <line id="Line_288" data-name="Line 288" x2="17.88" transform="translate(74.34 83.73)" fill="none" stroke="#fff" stroke-miterlimit="10" stroke-width="1"/>
    <line id="Line_289" data-name="Line 289" x2="17.88" transform="translate(38.59 83.73)" fill="none" stroke="#fff" stroke-miterlimit="10" stroke-width="1"/>
    <line id="Line_290" data-name="Line 290" y2="17.23" transform="translate(64.33 40.19)" fill="none" stroke="#fff" stroke-miterlimit="10" stroke-width="1"/>
    <line id="Line_291" data-name="Line 291" y2="17" transform="translate(66.65 40.42)" fill="none" stroke="#fff" stroke-miterlimit="10" stroke-width="1"/>
    <line id="Line_292" data-name="Line 292" x2="1.39" transform="translate(40.63 45.79)" fill="none" stroke="#fff" stroke-miterlimit="10" stroke-width="1"/>
    <line id="Line_293" data-name="Line 293" x2="1.39" transform="translate(40.63 50.66)" fill="none" stroke="#fff" stroke-miterlimit="10" stroke-width="1"/>
    <rect id="Rectangle_168" data-name="Rectangle 168" width="3.25" height="1.62" transform="translate(45.9 36.85)" fill="none" stroke="#fff" stroke-miterlimit="10" stroke-width="1"/>
    <rect id="Rectangle_169" data-name="Rectangle 169" width="3.25" height="1.62" transform="translate(81.65 36.85)" fill="none" stroke="#fff" stroke-miterlimit="10" stroke-width="1"/>
    <rect id="Rectangle_170" data-name="Rectangle 170" width="19.79" height="4.89" transform="translate(55.83 72.98)" fill="none" stroke="#fff" stroke-miterlimit="10" stroke-width="1"/>
    <rect id="Rectangle_171" data-name="Rectangle 171" width="6.5" height="4.88" transform="translate(44.6 72.99)" fill="none" stroke="#fff" stroke-miterlimit="10" stroke-width="1"/>
    <rect id="Rectangle_172" data-name="Rectangle 172" width="6.5" height="4.88" transform="translate(80.35 72.99)" fill="none" stroke="#fff" stroke-miterlimit="10" stroke-width="1"/>
    <path id="Path_698" data-name="Path 698" d="M44.28,85.92h6.5v4.5a2,2,0,0,1-2,2h-2.5a2,2,0,0,1-2-2Z" fill="none" stroke="#fff" stroke-miterlimit="10" stroke-width="1"/>
    <path id="Path_699" data-name="Path 699" d="M80.84,85.92h6.5v4.5a2,2,0,0,1-2,2h-2.5a2,2,0,0,1-2-2Z" fill="none" stroke="#fff" stroke-miterlimit="10" stroke-width="1"/>
    <path id="Path_700" data-name="Path 700" d="M61.34,59.17,58.09,54.3H46.72" fill="none" stroke="#fff" stroke-miterlimit="10" stroke-width="1"/>
    <path id="Path_701" data-name="Path 701" d="M71.09,54.3H82.47l3.25,4.87" fill="none" stroke="#fff" stroke-miterlimit="10" stroke-width="1"/>
    <line id="Line_294" data-name="Line 294" x2="19.5" transform="translate(55.98 74.67)" fill="none" stroke="#fff" stroke-miterlimit="10" stroke-width="1"/>
    <line id="Line_295" data-name="Line 295" x2="19.5" transform="translate(55.98 76.29)" fill="none" stroke="#fff" stroke-miterlimit="10" stroke-width="1"/>
    <line id="Line_296" data-name="Line 296" x1="1.39" transform="translate(88.73 45.79)" fill="none" stroke="#fff" stroke-miterlimit="10" stroke-width="1"/>
    <line id="Line_297" data-name="Line 297" x1="1.39" transform="translate(88.73 50.66)" fill="none" stroke="#fff" stroke-miterlimit="10" stroke-width="1"/>
    <rect id="Rectangle_173" data-name="Rectangle 173" width="4.06" height="8.13" transform="translate(90.16 44.16)" fill="none" stroke="#fff" stroke-miterlimit="10" stroke-width="1"/>
    <rect id="Rectangle_174" data-name="Rectangle 174" width="4.06" height="8.13" transform="translate(36.53 44.16)" fill="none" stroke="#fff" stroke-miterlimit="10" stroke-width="1"/>
  </g>
</svg>
