<svg id="Siddepladser" xmlns="http://www.w3.org/2000/svg" width="30.97" height="30.18" viewBox="0 0 30.97 30.18">
  <path id="Path_851" data-name="Path 851" d="M10.73,25" transform="translate(-4.5 -4.8)" fill="none" stroke="#1f2536" stroke-miterlimit="10" stroke-width="0.5"/>
  <path id="Path_852" data-name="Path 852" d="M10.73,27.72V9.15a3.9,3.9,0,0,1,3.66-4.1H25.61a3.9,3.9,0,0,1,3.66,4.1V27.72" transform="translate(-4.5 -4.8)" fill="none" stroke="#1f2536" stroke-miterlimit="10" stroke-width="0.5"/>
  <rect id="Rectangle_415" data-name="Rectangle 415" width="3.66" height="2.46" transform="translate(2.7 27.47)" fill="none" stroke="#1f2536" stroke-miterlimit="10" stroke-width="0.5"/>
  <rect id="Rectangle_416" data-name="Rectangle 416" width="3.66" height="2.46" transform="translate(24.65 27.47)" fill="none" stroke="#1f2536" stroke-miterlimit="10" stroke-width="0.5"/>
  <path id="Path_853" data-name="Path 853" d="M9.23,15.2H21.77a3,3,0,0,1,3,3v3H6.23v-3a3,3,0,0,1,3-3Z" fill="none" stroke="#1f2536" stroke-miterlimit="10" stroke-width="0.5"/>
  <path id="Path_854" data-name="Path 854" d="M29.15,14.86h4.07a2,2,0,0,1,2,2V32.14H4.75V16.9a2,2,0,0,1,2-2h4.07" transform="translate(-4.5 -4.8)" fill="none" stroke="#1f2536" stroke-miterlimit="10" stroke-width="0.5"/>
</svg>
