<svg id="Sovepladser" xmlns="http://www.w3.org/2000/svg" width="30.5" height="28.36" viewBox="0 0 30.5 28.36">
  <path id="Path_855" data-name="Path 855" d="M3.2,12.27h24a2,2,0,0,1,2,2v7H1.2v-7a2,2,0,0,1,2-2Z" fill="none" stroke="#1f2536" stroke-miterlimit="10" stroke-width="0.5"/>
  <rect id="Rectangle_417" data-name="Rectangle 417" width="30" height="3" transform="translate(0.25 21.3)" fill="none" stroke="#1f2536" stroke-miterlimit="10" stroke-width="0.5"/>
  <path id="Path_856" data-name="Path 856" d="M5.27.25h20a2,2,0,0,1,2,2v10h-24v-10A2,2,0,0,1,5.27.25Z" fill="none" stroke="#1f2536" stroke-miterlimit="10" stroke-width="0.5"/>
  <path id="Path_857" data-name="Path 857" d="M6.4,6.65h7a1,1,0,0,1,1,1v4.5h-9V7.65A1,1,0,0,1,6.4,6.65Z" fill="none" stroke="#1f2536" stroke-miterlimit="10" stroke-width="0.5"/>
  <path id="Path_858" data-name="Path 858" d="M17.38,6.65h7a1,1,0,0,1,1,1v4.5h-9V7.65A1,1,0,0,1,17.38,6.65Z" fill="none" stroke="#1f2536" stroke-miterlimit="10" stroke-width="0.5"/>
  <rect id="Rectangle_418" data-name="Rectangle 418" width="2.15" height="3.66" transform="translate(1.85 24.38)" fill="none" stroke="#1f2536" stroke-miterlimit="10" stroke-width="0.5"/>
  <rect id="Rectangle_419" data-name="Rectangle 419" width="2.01" height="3.73" transform="translate(26.65 24.38)" fill="none" stroke="#1f2536" stroke-miterlimit="10" stroke-width="0.5"/>
</svg>
